<?xml version="1.0" standalone="no"?>
<!DOCTYPE svg PUBLIC "-//W3C//DTD SVG 20010904//EN"
 "http://www.w3.org/TR/2001/REC-SVG-20010904/DTD/svg10.dtd">
<svg version="1.0" xmlns="http://www.w3.org/2000/svg"
 width="1024.000000pt" height="1024.000000pt" viewBox="0 0 1024.000000 1024.000000"
 preserveAspectRatio="xMidYMid meet">
<metadata>
Created by potrace 1.11, written by Peter Selinger 2001-2013
</metadata>
<g transform="translate(0.000000,1024.000000) scale(0.100000,-0.100000)"
fill="#000000" stroke="none">
<path d="M4636 10063 c-1 -1 -283 -5 -626 -8 -842 -8 -1278 -17 -1369 -29 -20
-3 -61 -8 -91 -11 -198 -22 -466 -85 -635 -149 -82 -32 -236 -112 -297 -156
-66 -48 -179 -151 -344 -315 -191 -190 -290 -305 -416 -484 -38 -53 -71 -101
-75 -107 -23 -32 -137 -221 -177 -294 -94 -171 -211 -429 -303 -670 -69 -181
-243 -711 -243 -742 0 -4 71 -8 158 -8 l157 1 44 72 c157 254 310 474 454 647
73 88 290 309 347 355 71 56 216 146 295 184 89 43 322 125 387 136 18 3 49
10 68 15 19 4 53 11 75 14 22 3 49 7 60 10 90 18 182 24 679 40 80 3 108 -13
109 -59 0 -33 -15 -236 -28 -360 -3 -27 -8 -90 -10 -140 -3 -49 -10 -121 -15
-160 -5 -38 -12 -113 -15 -165 -3 -52 -7 -117 -10 -145 -5 -55 -12 -156 -20
-280 -3 -44 -7 -102 -10 -130 -2 -27 -7 -86 -10 -130 -3 -44 -8 -98 -10 -120
-2 -22 -7 -89 -10 -150 -4 -60 -8 -126 -10 -145 -2 -19 -7 -87 -10 -150 -3
-63 -8 -133 -10 -156 -3 -22 -7 -87 -10 -145 -3 -57 -7 -131 -10 -164 -2 -33
-7 -103 -11 -155 -3 -52 -7 -111 -9 -130 -2 -19 -6 -73 -10 -120 -3 -47 -8
-98 -10 -115 -2 -16 -7 -66 -10 -110 -4 -44 -8 -91 -10 -105 -2 -14 -7 -50
-10 -80 -3 -30 -10 -82 -15 -115 -5 -33 -12 -80 -15 -105 -3 -25 -15 -101 -26
-170 -12 -69 -22 -134 -24 -145 -5 -35 -15 -100 -20 -125 -3 -13 -7 -40 -10
-60 -7 -46 -13 -78 -19 -98 -3 -9 -8 -35 -11 -57 -6 -48 -6 -46 -39 -198 -14
-65 -28 -131 -31 -145 -2 -15 -25 -101 -51 -192 -25 -91 -49 -178 -53 -195
-12 -45 -109 -300 -143 -375 -147 -324 -282 -538 -756 -1205 -243 -340 -333
-572 -335 -855 -1 -153 3 -187 34 -285 80 -260 304 -481 577 -570 122 -39 329
-52 452 -26 30 6 64 13 75 15 103 20 275 145 415 302 173 194 317 450 414 737
52 152 165 570 190 697 2 14 21 99 41 190 20 91 42 199 50 240 8 41 16 84 19
95 2 11 18 94 35 185 17 91 35 188 41 215 5 28 17 93 25 145 9 52 18 106 20
120 3 14 19 111 35 215 17 105 33 201 35 215 5 26 41 273 51 345 3 22 12 81
19 130 8 50 17 115 20 145 3 30 10 82 15 115 5 33 12 84 15 114 4 30 8 61 10
70 1 9 6 45 10 81 3 36 8 77 11 91 2 15 6 47 9 70 3 24 7 60 10 79 4 34 9 76
20 185 7 62 14 129 20 175 2 19 7 69 10 110 3 41 8 86 10 100 3 14 7 66 10
115 3 50 8 104 10 120 2 17 7 75 10 130 4 55 8 116 10 135 2 19 6 73 10 120 3
47 8 110 10 140 3 30 7 89 10 130 5 71 10 148 20 270 3 30 7 93 10 140 3 47 7
108 10 135 2 28 7 93 10 145 4 52 8 106 10 120 2 14 7 77 10 140 3 63 8 131
10 150 2 19 6 76 10 125 3 50 8 117 10 150 11 148 15 205 20 280 5 74 9 131
20 290 5 70 15 203 20 259 2 21 9 42 15 46 7 4 152 8 324 10 286 1 2077 2
2119 1 16 -1 18 -8 13 -63 -4 -35 -8 -76 -10 -93 -11 -82 -28 -203 -31 -225
-2 -14 -7 -49 -10 -79 -4 -30 -8 -61 -10 -70 -1 -9 -6 -47 -10 -84 -3 -37 -8
-76 -10 -85 -1 -9 -6 -46 -10 -82 -4 -36 -8 -72 -10 -80 -1 -8 -6 -46 -9 -85
-4 -38 -9 -77 -11 -85 -2 -8 -6 -46 -10 -85 -3 -38 -10 -108 -16 -155 -5 -47
-12 -107 -15 -135 -2 -27 -7 -66 -9 -85 -2 -19 -7 -64 -10 -100 -3 -36 -10
-101 -15 -145 -5 -44 -12 -114 -15 -155 -4 -41 -8 -86 -10 -100 -2 -14 -7 -59
-10 -100 -3 -41 -8 -91 -10 -110 -2 -19 -6 -73 -10 -119 -4 -47 -8 -92 -10
-100 -2 -9 -6 -54 -10 -101 -3 -47 -8 -101 -10 -120 -2 -19 -6 -73 -10 -120
-3 -47 -8 -101 -10 -120 -2 -19 -7 -69 -10 -110 -4 -41 -8 -91 -10 -110 -17
-179 -23 -300 -25 -480 -1 -77 -6 -131 -14 -139 -8 -12 -8 -13 2 -7 15 9 16
-8 1 -36 -8 -15 -8 -19 0 -14 6 4 11 3 11 -3 0 -5 -5 -13 -10 -16 -6 -4 -7
-11 -3 -18 4 -6 8 -326 9 -712 3 -779 8 -1009 29 -1240 3 -33 8 -85 11 -115 3
-30 7 -66 9 -80 2 -14 6 -59 10 -100 3 -41 8 -82 10 -90 2 -8 7 -40 10 -70 3
-30 8 -62 10 -70 2 -8 7 -40 10 -70 3 -30 8 -62 10 -70 3 -8 14 -64 24 -125
11 -60 23 -121 25 -135 3 -14 8 -34 10 -45 81 -374 229 -723 404 -955 133
-175 285 -317 456 -428 121 -78 333 -171 427 -187 18 -3 36 -8 40 -11 41 -25
497 -25 617 0 238 49 482 170 716 353 154 122 321 296 435 453 34 47 65 90 69
95 45 58 177 314 239 464 68 166 186 559 217 721 2 14 16 79 31 145 32 144 56
271 60 305 1 14 5 34 8 45 3 11 9 43 12 70 3 28 8 70 11 94 4 27 3 46 -4 50
-12 7 -278 5 -297 -3 -7 -2 -22 -49 -34 -103 -20 -90 -32 -140 -36 -153 -1 -3
-5 -18 -9 -35 -16 -63 -70 -201 -99 -254 -129 -240 -344 -424 -590 -506 -245
-81 -558 -80 -817 5 -201 66 -337 146 -471 280 -177 176 -294 394 -370 688
-31 119 -33 129 -48 242 -22 162 -19 1535 4 1865 2 28 6 109 10 180 4 72 8
148 10 170 2 22 6 90 10 150 3 61 8 126 10 145 2 19 7 76 10 125 3 50 8 110
10 135 4 45 10 116 20 233 3 34 8 82 10 107 3 25 7 70 10 100 5 52 11 108 20
190 2 19 7 64 10 100 4 36 8 81 11 100 2 19 6 60 10 90 3 30 7 66 9 80 2 14 7
54 10 90 4 36 8 72 10 80 2 8 6 44 10 80 3 36 8 76 10 90 2 14 6 50 10 80 3
30 12 102 20 160 8 58 17 132 20 165 4 33 8 71 10 84 5 30 9 57 40 296 31 234
63 444 69 454 6 9 253 12 1438 15 537 1 980 5 984 9 4 4 9 141 11 305 1 163 4
477 7 696 2 229 0 411 -6 425 -20 57 -32 58 -523 61 -574 3 -4906 6 -4909 3z"/>
</g>
</svg>
